# Blender 5.0.0
# www.blender.org
mtllib diamond.mtl
o Diamond
v 0.000000 1.838652 -0.000000
v -0.392235 1.287491 0.970258
v 0.000000 0.004173 -0.000000
v -0.963428 1.287491 0.408724
v -0.970258 1.287491 -0.392235
v -0.408724 1.287490 -0.963428
v 0.392235 1.287490 -0.970258
v 0.963428 1.287491 -0.408724
v 0.970258 1.287491 0.392235
v 0.408724 1.287491 0.963428
v -0.392235 1.370315 0.970258
v -0.963428 1.370315 0.408724
v -0.970258 1.370315 -0.392235
v -0.408724 1.370314 -0.963428
v 0.392235 1.370314 -0.970258
v 0.963428 1.370315 -0.408724
v 0.970258 1.370315 0.392235
v 0.408724 1.370315 0.963428
v -0.353836 1.572267 0.875271
v -0.869110 1.572267 0.368711
v -0.875271 1.572267 -0.353836
v -0.368711 1.572267 -0.869110
v 0.353836 1.572267 -0.875272
v 0.869110 1.572267 -0.368711
v 0.875271 1.572267 0.353835
v 0.368711 1.572267 0.869110
v -0.181425 1.723827 0.448785
v -0.611473 1.572267 0.621991
v -0.445626 1.723827 0.189052
v -0.872191 1.572267 0.007438
v -0.448785 1.723827 -0.181425
v -0.621991 1.572267 -0.611473
v -0.189052 1.723827 -0.445626
v -0.007438 1.572267 -0.872191
v 0.181425 1.723827 -0.448785
v 0.611473 1.572267 -0.621991
v 0.445626 1.723827 -0.189052
v 0.872191 1.572267 -0.007438
v 0.448785 1.723827 0.181425
v 0.621991 1.572267 0.611473
v 0.189052 1.723827 0.445626
v 0.007438 1.572267 0.872191
v 0.481714 0.605643 -0.204362
v 0.008460 1.357636 0.992075
v 0.196117 0.605642 -0.485129
v -0.695521 1.357636 0.707485
v -0.204362 0.605642 -0.481714
v -0.992075 1.357636 0.008460
v -0.707485 1.300169 -0.695521
v -0.707485 1.357636 -0.695521
v 0.204362 0.605643 0.481714
v -0.008460 1.357636 -0.992076
v 0.008460 1.300169 0.992075
v 0.695521 1.357636 -0.707485
v 0.485129 0.605643 0.196117
v 0.992075 1.357636 -0.008460
v 0.992075 1.300169 -0.008460
v 0.707485 1.357636 0.695521
v 0.707485 1.300169 0.695521
v 0.695521 1.300169 -0.707485
v -0.008460 1.300169 -0.992076
v -0.992075 1.300169 0.008460
v -0.695521 1.300169 0.707485
v -0.196117 0.605643 0.485129
v -0.481714 0.605643 0.204362
v -0.485129 0.605643 -0.196117
vn -0.2595 0.9594 0.1101
vn -0.1057 0.9594 0.2614
vn -0.0000 1.0000 -0.0000
vn -0.6687 -0.3002 0.6802
vn -0.2899 -0.6337 0.7172
vn -0.3565 -0.3083 0.8819
vn -0.2614 0.9594 -0.1057
vn -0.9539 -0.3002 0.0081
vn -0.7121 -0.6337 0.3021
vn -0.8757 -0.3083 0.3715
vn -0.1101 0.9594 -0.2595
vn -0.6802 -0.3002 -0.6687
vn -0.7172 -0.6337 -0.2899
vn -0.8819 -0.3083 -0.3565
vn 0.1057 0.9594 -0.2614
vn -0.0081 -0.3002 -0.9539
vn -0.3021 -0.6337 -0.7121
vn -0.3715 -0.3083 -0.8757
vn 0.2595 0.9594 -0.1101
vn 0.6687 -0.3002 -0.6802
vn 0.2899 -0.6337 -0.7172
vn 0.3565 -0.3083 -0.8819
vn 0.2614 0.9594 0.1057
vn 0.9539 -0.3002 -0.0081
vn 0.7121 -0.6337 -0.3021
vn 0.8757 -0.3083 -0.3715
vn 0.1101 0.9594 0.2595
vn 0.6802 -0.3002 0.6687
vn 0.7172 -0.6337 0.2899
vn 0.8819 -0.3083 0.3565
vn 0.0081 -0.3002 0.9539
vn 0.3021 -0.6337 0.7121
vn 0.3715 -0.3083 0.8757
vn -0.3634 0.2444 0.8990
vn -0.6824 0.2289 0.6942
vn -0.8927 0.2444 0.3787
vn -0.9734 0.2289 0.0083
vn -0.8990 0.2444 -0.3634
vn -0.6942 0.2289 -0.6824
vn -0.3787 0.2444 -0.8927
vn -0.0083 0.2289 -0.9734
vn 0.3634 0.2444 -0.8990
vn 0.6824 0.2289 -0.6942
vn 0.8927 0.2444 -0.3787
vn 0.9734 0.2289 -0.0083
vn 0.8990 0.2444 0.3634
vn 0.6942 0.2289 0.6824
vn 0.3787 0.2444 0.8927
vn 0.0083 0.2289 0.9734
vn -0.2559 0.7307 0.6329
vn -0.4612 0.7532 0.4691
vn -0.6284 0.7307 0.2666
vn -0.6578 0.7531 0.0056
vn -0.6329 0.7307 -0.2559
vn -0.4691 0.7532 -0.4612
vn -0.2666 0.7307 -0.6284
vn -0.0056 0.7531 -0.6578
vn 0.2559 0.7307 -0.6329
vn 0.6329 0.7307 0.2559
vn 0.4691 0.7532 0.4612
vn 0.2666 0.7307 0.6284
vn 0.0056 0.7531 0.6578
vn -0.0000 -1.0000 -0.0000
vn 0.4612 0.7532 -0.4691
vn 0.6284 0.7307 -0.2666
vn 0.6578 0.7531 -0.0056
vt 0.323223 0.676777
vt 0.250000 0.500000
vt 0.500000 0.500000
vt 0.062500 0.000000
vt 0.000000 0.500000
vt 0.000000 0.000000
vt 0.500000 0.750000
vt 0.187500 0.000000
vt 0.125000 0.500000
vt 0.125000 0.000000
vt 0.676777 0.676777
vt 0.312500 0.000000
vt 0.250000 0.000000
vt 0.750000 0.500000
vt 0.437500 0.000000
vt 0.375000 0.500000
vt 0.375000 0.000000
vt 0.676777 0.323223
vt 0.562500 0.000000
vt 0.500000 0.000000
vt 0.500000 0.250000
vt 0.687500 0.000000
vt 0.625000 0.500000
vt 0.625000 0.000000
vt 0.323223 0.323223
vt 0.812500 0.000000
vt 0.750000 0.000000
vt 0.937500 0.000000
vt 0.875000 0.500000
vt 0.875000 0.000000
vt 0.073223 0.676777
vt 0.146447 0.853553
vt 0.323223 0.926777
vt 0.500000 1.000000
vt 0.676777 0.926777
vt 0.853553 0.853553
vt 0.926777 0.676777
vt 1.000000 0.500000
vt 0.926777 0.323223
vt 0.853553 0.146447
vt 0.676777 0.073223
vt 0.323223 0.073223
vt 0.146447 0.146447
vt 0.073223 0.323223
vt 0.062500 1.000000
vt 0.187500 1.000000
vt 0.312500 1.000000
vt 0.437500 1.000000
vt 0.562500 1.000000
vt 0.687500 1.000000
vt 0.812500 1.000000
vt 1.000000 0.000000
vt 0.937500 1.000000
s 1
usemtl Mat
f 29/1/1 27/2/2 1/3/3
f 63/4/4 64/5/5 2/6/6
f 31/7/7 29/1/1 1/3/3
f 62/8/8 65/9/9 4/10/10
f 33/11/11 31/7/7 1/3/3
f 49/12/12 66/2/13 5/13/14
f 35/14/15 33/11/11 1/3/3
f 61/15/16 47/16/17 6/17/18
f 37/18/19 35/14/15 1/3/3
f 60/19/20 45/3/21 7/20/22
f 39/21/23 37/18/19 1/3/3
f 57/22/24 43/23/25 8/24/26
f 41/25/27 39/21/23 1/3/3
f 59/26/28 55/14/29 9/27/30
f 27/2/2 41/25/27 1/3/3
f 53/28/31 51/29/32 10/30/33
f 11/5/34 46/31/35 63/31/4 2/5/6
f 12/32/36 48/33/37 62/33/8 4/32/10
f 13/34/38 50/35/39 49/35/12 5/34/14
f 14/36/40 52/37/41 61/37/16 6/36/18
f 15/38/42 54/39/43 60/39/20 7/38/22
f 16/40/44 56/41/45 57/41/24 8/40/26
f 17/20/46 58/42/47 59/42/28 9/20/30
f 18/43/48 44/44/49 53/44/31 10/43/33
f 12/32/36 46/31/35 11/5/34 19/5/50 28/31/51 20/32/52
f 13/34/38 48/33/37 12/32/36 20/32/52 30/33/53 21/34/54
f 14/36/40 50/35/39 13/34/38 21/34/54 32/35/55 22/36/56
f 15/38/42 52/37/41 14/36/40 22/36/56 34/37/57 23/38/58
f 18/43/48 58/42/47 17/20/46 25/20/59 40/42/60 26/43/61
f 42/44/62 19/5/50 11/5/34 44/44/49 18/43/48 26/43/61
f 27/2/2 28/31/51 19/5/50
f 28/31/51 29/1/1 20/32/52
f 29/1/1 28/31/51 27/2/2
f 65/9/9 63/4/4 4/10/10
f 63/4/4 65/9/9 3/45/63 64/5/5
f 29/1/1 30/33/53 20/32/52
f 30/33/53 31/7/7 21/34/54
f 31/7/7 30/33/53 29/1/1
f 66/2/13 62/8/8 5/13/14
f 62/8/8 66/2/13 3/46/63 65/9/9
f 31/7/7 32/35/55 21/34/54
f 32/35/55 33/11/11 22/36/56
f 33/11/11 32/35/55 31/7/7
f 47/16/17 49/12/12 6/17/18
f 49/12/12 47/16/17 3/47/63 66/2/13
f 33/11/11 34/37/57 22/36/56
f 34/37/57 35/14/15 23/38/58
f 35/14/15 34/37/57 33/11/11
f 45/3/21 61/15/16 7/20/22
f 61/15/16 45/3/21 3/48/63 47/16/17
f 35/14/15 36/39/64 23/38/58
f 36/39/64 37/18/19 24/40/65
f 37/18/19 36/39/64 35/14/15
f 43/23/25 60/19/20 8/24/26
f 60/19/20 43/23/25 3/49/63 45/3/21
f 37/18/19 38/41/66 24/40/65
f 38/41/66 39/21/23 25/20/59
f 39/21/23 38/41/66 37/18/19
f 55/14/29 57/22/24 9/27/30
f 57/22/24 55/14/29 3/50/63 43/23/25
f 39/21/23 40/42/60 25/20/59
f 40/42/60 41/25/27 26/43/61
f 41/25/27 40/42/60 39/21/23
f 51/29/32 59/26/28 10/30/33
f 59/26/28 51/29/32 3/51/63 55/14/29
f 41/25/27 42/44/62 26/43/61
f 42/44/62 27/2/2 19/5/50
f 27/2/2 42/44/62 41/25/27
f 64/38/5 53/28/31 2/52/6
f 53/28/31 64/38/5 3/53/63 51/29/32
f 46/31/35 12/32/36 4/32/10 63/31/4
f 48/33/37 13/34/38 5/34/14 62/33/8
f 50/35/39 14/36/40 6/36/18 49/35/12
f 52/37/41 15/38/42 7/38/22 61/37/16
f 54/39/43 16/40/44 8/40/26 60/39/20
f 56/41/45 17/20/46 9/20/30 57/41/24
f 58/42/47 18/43/48 10/43/33 59/42/28
f 44/44/49 11/5/34 2/5/6 53/44/31
f 16/40/44 54/39/43 15/38/42 23/38/58 36/39/64 24/40/65
f 17/20/46 56/41/45 16/40/44 24/40/65 38/41/66 25/20/59
